<?xml version="1.0" encoding="utf-8"?>
<!-- Generator: Adobe Illustrator 21.0.0, SVG Export Plug-In . SVG Version: 6.00 Build 0)  -->
<svg version="1.1" id="Layer_1" xmlns="http://www.w3.org/2000/svg" xmlns:xlink="http://www.w3.org/1999/xlink" x="0px" y="0px"
	 viewBox="0 0 512 512" style="enable-background:new 0 0 512 512;" xml:space="preserve">
<style type="text/css">
	.st0{fill:#2AC6B3;}
</style>
<path class="st0" d="M256,0C114.6,0,0,114.6,0,256s114.6,256,256,256s256-114.6,256-256S397.4,0,256,0z M345.5,380.5
	c-12.4,5.8-23.7,10-33.7,12.3c-10,2.4-20.9,3.5-32.6,3.5c-13.3,0-25-1.7-35.2-5c-10.2-3.4-18.9-8.1-26.1-14.3
	c-7.2-6.2-12.2-12.8-15-19.8s-4.2-17.1-4.2-30.4V224.9h-32.1v-41.1c11.4-3.7,21.2-9,29.3-15.9s14.7-15.2,19.6-25
	c4.9-9.7,8.3-22,10.2-37H267v73.4h68.9v45.6H267v74.5c0,16.8,0.9,27.7,2.7,32.4c1.8,4.8,5.1,8.6,10,11.5c6.4,3.8,13.8,5.8,22,5.8
	c14.7,0,29.3-4.8,43.9-14.3L345.5,380.5L345.5,380.5z"/>
</svg>
